<?xml version="1.0" encoding="utf-8"?>
<!-- Generator: Adobe Illustrator 18.0.0, SVG Export Plug-In . SVG Version: 6.00 Build 0)  -->
<!DOCTYPE svg PUBLIC "-//W3C//DTD SVG 1.1//EN" "http://www.w3.org/Graphics/SVG/1.1/DTD/svg11.dtd">
<svg version="1.1" id="Layer_1" xmlns="http://www.w3.org/2000/svg" xmlns:xlink="http://www.w3.org/1999/xlink" x="0px" y="0px"
	 viewBox="0 0 225.7 74.3" enable-background="new 0 0 225.7 74.3" xml:space="preserve">
<path fill="#ffffff" d="M78.6,16c-13.8,0-25,11.2-25,25s11.2,25,25,25c13.8,0,25-11.2,25-25S92.4,16,78.6,16z M78.6,60.6
	C67.8,60.6,59,51.8,59,41c0-10.8,8.8-19.7,19.7-19.7c10.8,0,19.7,8.8,19.7,19.7C98.3,51.8,89.5,60.6,78.6,60.6z M132.7,16
	c-13.8,0-25,11.2-25,25s11.2,25,25,25c13.8,0,25-11.2,25-25S146.5,16,132.7,16z M132.7,60.6c-10.8,0-19.7-8.8-19.7-19.7
	c0-10.8,8.8-19.7,19.7-19.7c10.8,0,19.7,8.8,19.7,19.7C152.4,51.8,143.6,60.6,132.7,60.6z M35.7,31c-4.8-0.7-9.5,0.6-13.3,3.5V21.2
	h22.5c0.8,0,1.3-0.1,1.3-2.4c0-2.2-0.9-2.3-1.5-2.3H19.7c-1.4,0-2.2,1.2-2.2,2.5v21.7c0,1.1,0.7,1.5,2.1,1.8
	c1.2,0.2,1.9,0.1,2.4-0.5l0.1-0.1c2.4-3.4,7.5-6.7,12.4-6.1c5.8,0.7,10.6,5.4,11.2,11.1c0.4,3.6-0.7,7.1-3.1,9.9
	c-2.4,2.7-5.8,4.2-9.4,4.2c-5.3,0-10-3.4-11.9-8.4c-0.3-0.7-0.8-1.3-2.9-0.5c-1.9,0.7-2,1.5-1.8,2.2c2.5,6.9,9.2,11.6,16.5,11.6
	c5,0,9.8-2.1,13.1-5.9c3.4-3.8,4.9-8.6,4.3-13.7C49.7,38.4,43.5,32.1,35.7,31z M174.8,16.2c-6.7,0.5-12,6.4-12,13.5v22.2
	c0,1.3,1,1.6,2.5,1.6c1.5,0,2.5-0.3,2.5-1.6V29.6c0-4.4,3.2-8.1,7.3-8.6c2.3-0.2,4.6,0.5,6.3,2.1c1.7,1.5,2.7,3.8,2.7,6.1
	c0,0.7-0.3,2.8-1.8,4.9c-1.1,1.5-3.3,3.3-7,3.3c0,0,0,0-0.1,0c-1,0-1.8,0-2,2.3c-0.1,1.5-0.1,2.2,1.2,2.4c2.4,0.3,4.8-0.1,7.2-1.4
	c4.1-2.1,6.9-6.2,7.2-10.6c0.3-3.8-1.1-7.5-3.8-10.2C182.3,17.3,178.6,15.9,174.8,16.2z M207.6,29.2l9.1-9.1
	c0.3-0.3,1.1-1.1-0.5-2.7c-0.7-0.7-1.3-1-1.8-1h0c-0.5,0-0.8,0.2-1,0.5l-9.1,9.1l-9.1-9.1c-0.7-0.7-1.6-0.6-2.7,0.5
	c-1.1,1.1-1.3,2-0.6,2.7l9.1,9.1l-8.9,8.9l-0.1,0.1c-0.2,0.2-0.5,0.5-0.5,1c0,0.5,0.4,1.2,1.1,1.9c0.6,0.6,1.2,0.9,1.7,0.9h0
	c0.6,0,1-0.4,1.2-0.6l8.9-8.9l9.1,9.1c0.1,0.1,0.4,0.4,1,0.4h0c0.6,0,1.2-0.3,1.8-1c1-1.1,1.2-2,0.5-2.7L207.6,29.2z"/>
</svg>
